<svg width="120" height="120" viewBox="0 0 120 120" fill="none" xmlns="http://www.w3.org/2000/svg">
<circle cx="60" cy="60" r="60" fill="#FFBD12"/>
<path fill-rule="evenodd" clip-rule="evenodd" d="M28.934 93.1763C37.0387 101.281 47.2475 105.333 59.5605 105.333C67.0417 105.333 73.8996 103.619 80.134 100.19C86.4463 96.6831 91.3949 91.9294 94.9796 85.9288L76.8609 75.4082C75.3023 78.3696 72.9644 80.7075 69.8472 82.4219C66.808 84.0584 63.379 84.8767 59.5605 84.8767C53.0143 84.8767 47.7151 82.8505 43.6627 78.7982C39.6883 74.6679 37.7011 69.2907 37.7011 62.6667C37.7011 56.0426 39.6883 50.7044 43.6627 46.6521C47.7151 42.5218 53.0143 40.4566 59.5605 40.4566C63.379 40.4566 66.808 41.3139 69.8472 43.0283C72.9644 44.6648 75.3023 46.9248 76.8609 49.8082L94.9796 39.4046C91.3949 33.4819 86.4463 28.7671 80.134 25.2603C73.8217 21.7534 66.9638 20 59.5605 20C47.2475 20 37.0387 24.0913 28.934 32.274C20.9072 40.3787 16.8938 50.5096 16.8938 62.6667C16.8938 74.8237 20.9072 84.9936 28.934 93.1763ZM93.3332 72C98.4879 72 102.667 67.8213 102.667 62.6667C102.667 57.512 98.4879 53.3333 93.3332 53.3333C88.1786 53.3333 83.9999 57.512 83.9999 62.6667C83.9999 67.8213 88.1786 72 93.3332 72Z" fill="#18191F"/>
<path fill-rule="evenodd" clip-rule="evenodd" d="M71.1219 84.7642L71.1115 84.7698C67.6437 86.6371 63.7725 87.5434 59.5605 87.5434C52.4164 87.5434 46.4019 85.3086 41.7771 80.6838L41.759 80.6657L41.7412 80.6472C37.2142 75.9426 35.0344 69.8647 35.0344 62.6667C35.0344 55.4699 37.2142 49.4187 41.7589 44.7848C46.3804 40.0744 52.4011 37.79 59.5605 37.79C63.7794 37.79 67.6551 38.7384 71.1223 40.686C73.8036 42.0996 76.0216 43.9488 77.7323 46.2329L91.1976 38.5012C88.028 34.0488 83.9203 30.4144 78.8389 27.5914C72.9331 24.3103 66.5226 22.6667 59.5605 22.6667C47.9046 22.6667 38.3954 26.511 30.8286 34.1505C23.3312 41.7207 19.5605 51.1612 19.5605 62.6667C19.5605 74.1676 23.3287 83.6496 30.8285 91.2996C38.3921 98.8586 47.9013 102.667 59.5605 102.667C66.6141 102.667 73.0246 101.056 78.8434 97.8564C83.9324 95.0284 88.047 91.3563 91.2209 86.8299L77.754 79.0104C76.0455 81.3603 73.825 83.2775 71.1323 84.7585L71.1219 84.7642ZM76.1553 76.6235C74.6277 79.0163 72.525 80.9492 69.8472 82.4219C66.808 84.0584 63.379 84.8767 59.5605 84.8767C53.0143 84.8767 47.7151 82.8505 43.6627 78.7982C39.6883 74.6679 37.7011 69.2907 37.7011 62.6667C37.7011 56.0426 39.6883 50.7044 43.6627 46.6521C47.7151 42.5218 53.0143 40.4566 59.5605 40.4566C63.379 40.4566 66.808 41.3139 69.8472 43.0283C72.6985 44.5252 74.8977 46.5437 76.4449 49.0838C76.5893 49.3207 76.7279 49.5622 76.8609 49.8082L94.9796 39.4046C94.5161 38.6386 94.0297 37.8929 93.5205 37.1674C90.0922 32.2827 85.63 28.3136 80.134 25.2603C73.8217 21.7534 66.9638 20 59.5605 20C47.2475 20 37.0387 24.0913 28.934 32.274C20.9072 40.3787 16.8938 50.5096 16.8938 62.6667C16.8938 74.8237 20.9072 84.9936 28.934 93.1763C37.0387 101.281 47.2475 105.333 59.5605 105.333C67.0417 105.333 73.8996 103.619 80.134 100.19C85.6377 97.1323 90.1046 93.1268 93.5348 88.1735C94.0388 87.4457 94.5204 86.6975 94.9796 85.9288L76.8609 75.4082C76.6412 75.8257 76.406 76.2308 76.1553 76.6235ZM93.3332 69.3333C97.0151 69.3333 99.9999 66.3486 99.9999 62.6667C99.9999 58.9848 97.0151 56 93.3332 56C89.6513 56 86.6666 58.9848 86.6666 62.6667C86.6666 66.3486 89.6513 69.3333 93.3332 69.3333ZM102.667 62.6667C102.667 67.8213 98.4879 72 93.3332 72C88.1786 72 83.9999 67.8213 83.9999 62.6667C83.9999 57.512 88.1786 53.3333 93.3332 53.3333C98.4879 53.3333 102.667 57.512 102.667 62.6667Z" fill="#18191F"/>
<path fill-rule="evenodd" clip-rule="evenodd" d="M28.934 90.5096C37.0387 98.6143 47.2475 102.667 59.5605 102.667C67.0417 102.667 73.8996 100.952 80.134 97.5233C86.4463 94.0164 91.3949 89.2627 94.9796 83.2621L76.8609 72.7415C75.3023 75.7029 72.9644 78.0408 69.8472 79.7552C66.808 81.3918 63.379 82.21 59.5605 82.21C53.0143 82.21 47.7151 80.1839 43.6627 76.1315C39.6883 72.0012 37.7011 66.624 37.7011 60C37.7011 53.3759 39.6883 48.0377 43.6627 43.9854C47.7151 39.8551 53.0143 37.79 59.5605 37.79C63.379 37.79 66.808 38.6472 69.8472 40.3616C72.9644 41.9982 75.3023 44.2581 76.8609 47.1416L94.9796 36.7379C91.3949 30.8152 86.4463 26.1005 80.134 22.5936C73.8217 19.0868 66.9638 17.3333 59.5605 17.3333C47.2475 17.3333 37.0387 21.4247 28.934 29.6073C20.9072 37.712 16.8938 47.8429 16.8938 60C16.8938 72.1571 20.9072 82.3269 28.934 90.5096ZM93.3332 69.3333C98.4879 69.3333 102.667 65.1547 102.667 60C102.667 54.8453 98.4879 50.6667 93.3332 50.6667C88.1786 50.6667 83.9999 54.8453 83.9999 60C83.9999 65.1547 88.1786 69.3333 93.3332 69.3333Z" fill="white"/>
<path fill-rule="evenodd" clip-rule="evenodd" d="M71.1219 82.0975L71.1115 82.1032C67.6437 83.9705 63.7725 84.8767 59.5605 84.8767C52.4164 84.8767 46.4019 82.6419 41.7771 78.0171L41.759 77.999L41.7412 77.9805C37.2142 73.276 35.0344 67.198 35.0344 60C35.0344 52.8032 37.2142 46.752 41.7589 42.1182C46.3804 37.4078 52.4011 35.1233 59.5605 35.1233C63.7794 35.1233 67.6551 36.0717 71.1223 38.0193C73.8036 39.433 76.0216 41.2821 77.7323 43.5662L91.1976 35.8345C88.028 31.3821 83.9203 27.7477 78.8389 24.9247C72.9331 21.6437 66.5226 20 59.5605 20C47.9046 20 38.3954 23.8443 30.8286 31.4839C23.3312 39.0541 19.5605 48.4945 19.5605 60C19.5605 71.5009 23.3287 80.9829 30.8285 88.6329C38.3921 96.192 47.9013 100 59.5605 100C66.6141 100 73.0246 98.3888 78.8434 95.1897C83.9324 92.3617 88.047 88.6896 91.2209 84.1632L77.754 76.3437C76.0455 78.6936 73.825 80.6109 71.1323 82.0918L71.1219 82.0975ZM76.1553 73.9568C74.6277 76.3497 72.525 78.2825 69.8472 79.7552C66.808 81.3918 63.379 82.21 59.5605 82.21C53.0143 82.21 47.7151 80.1839 43.6627 76.1315C39.6883 72.0012 37.7011 66.624 37.7011 60C37.7011 53.3759 39.6883 48.0377 43.6627 43.9854C47.7151 39.8551 53.0143 37.79 59.5605 37.79C63.379 37.79 66.808 38.6472 69.8472 40.3616C72.6985 41.8585 74.8977 43.877 76.4449 46.4171C76.5893 46.654 76.7279 46.8955 76.8609 47.1416L94.9796 36.7379C94.5161 35.972 94.0297 35.2263 93.5205 34.5007C90.0922 29.616 85.63 25.6469 80.134 22.5936C73.8217 19.0868 66.9638 17.3333 59.5605 17.3333C47.2475 17.3333 37.0387 21.4247 28.934 29.6073C20.9072 37.712 16.8938 47.8429 16.8938 60C16.8938 72.1571 20.9072 82.3269 28.934 90.5096C37.0387 98.6143 47.2475 102.667 59.5605 102.667C67.0417 102.667 73.8996 100.952 80.134 97.5233C85.6377 94.4657 90.1046 90.4602 93.5348 85.5068C94.0388 84.779 94.5204 84.0308 94.9796 83.2621L76.8609 72.7415C76.6412 73.159 76.406 73.5641 76.1553 73.9568ZM93.3332 66.6667C97.0151 66.6667 99.9999 63.6819 99.9999 60C99.9999 56.3181 97.0151 53.3333 93.3332 53.3333C89.6513 53.3333 86.6666 56.3181 86.6666 60C86.6666 63.6819 89.6513 66.6667 93.3332 66.6667ZM102.667 60C102.667 65.1547 98.4879 69.3333 93.3332 69.3333C88.1786 69.3333 83.9999 65.1547 83.9999 60C83.9999 54.8453 88.1786 50.6667 93.3332 50.6667C98.4879 50.6667 102.667 54.8453 102.667 60Z" fill="#18191F"/>
</svg>
